name rise44.8762peak52.3436fall86.788.mot
datacolumns 19
datarows 30
range 5.75831200000000 5.80664700000000
endheader
time	ground_force1_vx	ground_force1_vy	ground_force1_vz	ground_force1_px	ground_force1_py	ground_force1_pz	ground_force2_vx	ground_force2_vy	ground_force2_vz	ground_force2_px	ground_force2_py	ground_force2_pz	ground_torque1_x	ground_torque1_y	ground_torque1_z	ground_torque2_x	ground_torque2_y	ground_torque2_z	
5.75831200000000	61.39232900000000	819.41640700000005	68.86389699999999	0.24726600000000	0.00000000000000	0.14790300000000	0.00000000000000	0.00000000000000	0.00000000000000	0.00000000000000	0.00000000000000	0.00000000000000	0.00000000000000	15.39713400000000	0.00000000000000	0.00000000000000	0.00000000000000	0.00000000000000	
5.75999200000000	60.39106900000000	820.05465500000003	68.76304100000000	0.24616300000000	0.00000000000000	0.14790300000000	0.00000000000000	0.00000000000000	0.00000000000000	0.00000000000000	0.00000000000000	0.00000000000000	0.00000000000000	15.46436800000000	0.00000000000000	0.00000000000000	0.00000000000000	0.00000000000000	
5.76164800000000	59.38751600000000	820.48524499999996	68.64246500000000	0.24507200000000	0.00000000000000	0.14790300000000	0.00000000000000	0.00000000000000	0.00000000000000	0.00000000000000	0.00000000000000	0.00000000000000	0.00000000000000	15.52414400000000	0.00000000000000	0.00000000000000	0.00000000000000	0.00000000000000	
5.76331400000000	58.38303600000000	820.71045000000004	68.50297000000000	0.24399200000000	0.00000000000000	0.14790300000000	0.00000000000000	0.00000000000000	0.00000000000000	0.00000000000000	0.00000000000000	0.00000000000000	0.00000000000000	15.57663200000000	0.00000000000000	0.00000000000000	0.00000000000000	0.00000000000000	
5.76497800000000	57.37891100000000	820.73290799999995	68.34533300000000	0.24292200000000	0.00000000000000	0.14790300000000	0.00000000000000	0.00000000000000	0.00000000000000	0.00000000000000	0.00000000000000	0.00000000000000	0.00000000000000	15.62199800000000	0.00000000000000	0.00000000000000	0.00000000000000	0.00000000000000	
5.76664500000000	56.37634700000000	820.55562799999996	68.17030900000000	0.24186200000000	0.00000000000000	0.14790300000000	0.00000000000000	0.00000000000000	0.00000000000000	0.00000000000000	0.00000000000000	0.00000000000000	0.00000000000000	15.66040400000000	0.00000000000000	0.00000000000000	0.00000000000000	0.00000000000000	
5.76831300000000	55.37647000000000	820.18198700000005	67.97862900000000	0.24081100000000	0.00000000000000	0.14790300000000	0.00000000000000	0.00000000000000	0.00000000000000	0.00000000000000	0.00000000000000	0.00000000000000	0.00000000000000	15.69200700000000	0.00000000000000	0.00000000000000	0.00000000000000	0.00000000000000	
5.76997600000000	54.38032900000000	819.61572699999999	67.77100200000000	0.23976700000000	0.00000000000000	0.14790300000000	0.00000000000000	0.00000000000000	0.00000000000000	0.00000000000000	0.00000000000000	0.00000000000000	0.00000000000000	15.71696100000000	0.00000000000000	0.00000000000000	0.00000000000000	0.00000000000000	
5.77164400000000	53.38890200000000	818.86095100000000	67.54811700000000	0.23873000000000	0.00000000000000	0.14790400000000	0.00000000000000	0.00000000000000	0.00000000000000	0.00000000000000	0.00000000000000	0.00000000000000	0.00000000000000	15.73541700000000	0.00000000000000	0.00000000000000	0.00000000000000	0.00000000000000	
5.77330900000000	52.40309400000000	817.92211399999997	67.31064000000001	0.23769900000000	0.00000000000000	0.14790500000000	0.00000000000000	0.00000000000000	0.00000000000000	0.00000000000000	0.00000000000000	0.00000000000000	0.00000000000000	15.74752300000000	0.00000000000000	0.00000000000000	0.00000000000000	0.00000000000000	
5.77497700000000	51.42374000000000	816.80401800000004	67.05922200000001	0.23667200000000	0.00000000000000	0.14790700000000	0.00000000000000	0.00000000000000	0.00000000000000	0.00000000000000	0.00000000000000	0.00000000000000	0.00000000000000	15.75342700000000	0.00000000000000	0.00000000000000	0.00000000000000	0.00000000000000	
5.77664200000000	50.45161200000000	815.51180199999999	66.79449300000000	0.23564900000000	0.00000000000000	0.14790900000000	0.00000000000000	0.00000000000000	0.00000000000000	0.00000000000000	0.00000000000000	0.00000000000000	0.00000000000000	15.75327100000000	0.00000000000000	0.00000000000000	0.00000000000000	0.00000000000000	
5.77831400000000	49.48741800000000	814.05092900000000	66.51706600000000	0.23462900000000	0.00000000000000	0.14791100000000	0.00000000000000	0.00000000000000	0.00000000000000	0.00000000000000	0.00000000000000	0.00000000000000	0.00000000000000	15.74720200000000	0.00000000000000	0.00000000000000	0.00000000000000	0.00000000000000	
5.77997700000000	48.53180700000000	812.42717200000004	66.22754399999999	0.23361000000000	0.00000000000000	0.14791500000000	0.00000000000000	0.00000000000000	0.00000000000000	0.00000000000000	0.00000000000000	0.00000000000000	0.00000000000000	15.73536000000000	0.00000000000000	0.00000000000000	0.00000000000000	0.00000000000000	
5.78164700000000	47.58537100000000	810.64660200000003	65.92651100000000	0.23259100000000	0.00000000000000	0.14791800000000	0.00000000000000	0.00000000000000	0.00000000000000	0.00000000000000	0.00000000000000	0.00000000000000	0.00000000000000	15.71789200000000	0.00000000000000	0.00000000000000	0.00000000000000	0.00000000000000	
5.78330900000000	46.64865100000000	808.71557199999995	65.61454300000000	0.23157100000000	0.00000000000000	0.14792300000000	0.00000000000000	0.00000000000000	0.00000000000000	0.00000000000000	0.00000000000000	0.00000000000000	0.00000000000000	15.69493900000000	0.00000000000000	0.00000000000000	0.00000000000000	0.00000000000000	
5.78497900000000	45.72214000000000	806.64069800000004	65.29220599999999	0.23054900000000	0.00000000000000	0.14792900000000	0.00000000000000	0.00000000000000	0.00000000000000	0.00000000000000	0.00000000000000	0.00000000000000	0.00000000000000	15.66664700000000	0.00000000000000	0.00000000000000	0.00000000000000	0.00000000000000	
5.78664500000000	44.80628500000000	804.42884400000003	64.96005599999999	0.22952400000000	0.00000000000000	0.14793500000000	0.00000000000000	0.00000000000000	0.00000000000000	0.00000000000000	0.00000000000000	0.00000000000000	0.00000000000000	15.63316400000000	0.00000000000000	0.00000000000000	0.00000000000000	0.00000000000000	
5.78831400000000	43.90149100000000	802.08709799999997	64.61864400000000	0.22849500000000	0.00000000000000	0.14794200000000	0.00000000000000	0.00000000000000	0.00000000000000	0.00000000000000	0.00000000000000	0.00000000000000	0.00000000000000	15.59463700000000	0.00000000000000	0.00000000000000	0.00000000000000	0.00000000000000	
5.78997800000000	43.00812500000000	799.62275499999998	64.26851600000001	0.22746100000000	0.00000000000000	0.14795000000000	0.00000000000000	0.00000000000000	0.00000000000000	0.00000000000000	0.00000000000000	0.00000000000000	0.00000000000000	15.55121800000000	0.00000000000000	0.00000000000000	0.00000000000000	0.00000000000000	
5.79164100000000	42.12652100000000	797.04329499999994	63.91021400000000	0.22642100000000	0.00000000000000	0.14795900000000	0.00000000000000	0.00000000000000	0.00000000000000	0.00000000000000	0.00000000000000	0.00000000000000	0.00000000000000	15.50306000000000	0.00000000000000	0.00000000000000	0.00000000000000	0.00000000000000	
5.79330800000000	41.25698100000000	794.35636099999999	63.54427700000000	0.22537500000000	0.00000000000000	0.14796900000000	0.00000000000000	0.00000000000000	0.00000000000000	0.00000000000000	0.00000000000000	0.00000000000000	0.00000000000000	15.45032100000000	0.00000000000000	0.00000000000000	0.00000000000000	0.00000000000000	
5.79497400000000	40.39977800000000	791.56973600000003	63.17124500000000	0.22432100000000	0.00000000000000	0.14798000000000	0.00000000000000	0.00000000000000	0.00000000000000	0.00000000000000	0.00000000000000	0.00000000000000	0.00000000000000	15.39316100000000	0.00000000000000	0.00000000000000	0.00000000000000	0.00000000000000	
5.79664700000000	39.55516100000000	788.69132000000002	62.79165800000000	0.22325800000000	0.00000000000000	0.14799200000000	0.00000000000000	0.00000000000000	0.00000000000000	0.00000000000000	0.00000000000000	0.00000000000000	0.00000000000000	15.33174500000000	0.00000000000000	0.00000000000000	0.00000000000000	0.00000000000000	
5.79830600000000	38.72335800000000	785.72910700000000	62.40605700000000	0.22218700000000	0.00000000000000	0.14800600000000	0.00000000000000	0.00000000000000	0.00000000000000	0.00000000000000	0.00000000000000	0.00000000000000	0.00000000000000	15.26623900000000	0.00000000000000	0.00000000000000	0.00000000000000	0.00000000000000	
5.79997500000000	37.90457400000000	782.69115899999997	62.01498500000000	0.22110600000000	0.00000000000000	0.14802000000000	0.00000000000000	0.00000000000000	0.00000000000000	0.00000000000000	0.00000000000000	0.00000000000000	0.00000000000000	15.19681800000000	0.00000000000000	0.00000000000000	0.00000000000000	0.00000000000000	
5.80164200000000	37.09900000000000	779.58558600000003	61.61899000000000	0.22001600000000	0.00000000000000	0.14803500000000	0.00000000000000	0.00000000000000	0.00000000000000	0.00000000000000	0.00000000000000	0.00000000000000	0.00000000000000	15.12365600000000	0.00000000000000	0.00000000000000	0.00000000000000	0.00000000000000	
5.80331400000000	36.30681100000000	776.42051900000001	61.21862100000000	0.21891500000000	0.00000000000000	0.14805200000000	0.00000000000000	0.00000000000000	0.00000000000000	0.00000000000000	0.00000000000000	0.00000000000000	0.00000000000000	15.04693500000000	0.00000000000000	0.00000000000000	0.00000000000000	0.00000000000000	
5.80497800000000	35.52816800000000	773.20408799999996	60.81443500000000	0.21780400000000	0.00000000000000	0.14807000000000	0.00000000000000	0.00000000000000	0.00000000000000	0.00000000000000	0.00000000000000	0.00000000000000	0.00000000000000	14.96684100000000	0.00000000000000	0.00000000000000	0.00000000000000	0.00000000000000	
5.80664700000000	34.76322000000000	769.94439599999998	60.40699000000000	0.21668200000000	0.00000000000000	0.14808900000000	0.00000000000000	0.00000000000000	0.00000000000000	0.00000000000000	0.00000000000000	0.00000000000000	0.00000000000000	14.88356200000000	0.00000000000000	0.00000000000000	0.00000000000000	0.00000000000000	
